<mxfile host="65bd71144e">
    <diagram id="6AsLAJR6rR4d6Buv_e9T" name="Moving Magnet Viewpoint">
        <mxGraphModel dx="594" dy="383" grid="1" gridSize="10" guides="1" tooltips="1" connect="1" arrows="1" fold="1" page="1" pageScale="1" pageWidth="850" pageHeight="1100" math="1" shadow="0">
            <root>
                <mxCell id="0"/>
                <mxCell id="1" parent="0"/>
                <mxCell id="tNNEHWLQzJgv0AfUDhNk-1" value="" style="rounded=0;whiteSpace=wrap;html=1;fontSize=6;" vertex="1" parent="1">
                    <mxGeometry x="260" y="120" width="320" height="180" as="geometry"/>
                </mxCell>
                <mxCell id="NuhRCnbj-rR4ml6HiLZx-2" value="`x``" style="text;html=1;align=center;verticalAlign=middle;resizable=0;points=[];autosize=1;strokeColor=none;fillColor=none;container=0;" parent="1" vertex="1">
                    <mxGeometry x="420" y="210" width="40" height="30" as="geometry"/>
                </mxCell>
                <mxCell id="NuhRCnbj-rR4ml6HiLZx-3" value="" style="endArrow=classic;html=1;rounded=0;strokeWidth=2;" parent="1" edge="1">
                    <mxGeometry width="50" height="50" relative="1" as="geometry">
                        <mxPoint x="340" y="230" as="sourcePoint"/>
                        <mxPoint x="300" y="270" as="targetPoint"/>
                    </mxGeometry>
                </mxCell>
                <mxCell id="NuhRCnbj-rR4ml6HiLZx-4" value="" style="endArrow=classic;html=1;rounded=0;strokeWidth=2;" parent="1" edge="1">
                    <mxGeometry width="50" height="50" relative="1" as="geometry">
                        <mxPoint x="340" y="230" as="sourcePoint"/>
                        <mxPoint x="420" y="230" as="targetPoint"/>
                    </mxGeometry>
                </mxCell>
                <mxCell id="NuhRCnbj-rR4ml6HiLZx-5" value="" style="endArrow=classic;html=1;rounded=0;strokeWidth=2;" parent="1" edge="1">
                    <mxGeometry width="50" height="50" relative="1" as="geometry">
                        <mxPoint x="340" y="230" as="sourcePoint"/>
                        <mxPoint x="340" y="150" as="targetPoint"/>
                    </mxGeometry>
                </mxCell>
                <mxCell id="NuhRCnbj-rR4ml6HiLZx-6" value="" style="endArrow=none;html=1;rounded=0;strokeWidth=2;" parent="1" source="NuhRCnbj-rR4ml6HiLZx-8" edge="1">
                    <mxGeometry width="50" height="50" relative="1" as="geometry">
                        <mxPoint x="380" y="250" as="sourcePoint"/>
                        <mxPoint x="380" y="180" as="targetPoint"/>
                    </mxGeometry>
                </mxCell>
                <mxCell id="NuhRCnbj-rR4ml6HiLZx-7" value="" style="endArrow=none;html=1;rounded=0;strokeWidth=2;" parent="1" target="NuhRCnbj-rR4ml6HiLZx-8" edge="1">
                    <mxGeometry width="50" height="50" relative="1" as="geometry">
                        <mxPoint x="380" y="250" as="sourcePoint"/>
                        <mxPoint x="380" y="180" as="targetPoint"/>
                    </mxGeometry>
                </mxCell>
                <mxCell id="NuhRCnbj-rR4ml6HiLZx-8" value="" style="shape=waypoint;sketch=0;fillStyle=solid;size=6;pointerEvents=1;points=[];fillColor=none;resizable=0;rotatable=0;perimeter=centerPerimeter;snapToPoint=1;container=0;" parent="1" vertex="1">
                    <mxGeometry x="370" y="190" width="20" height="20" as="geometry"/>
                </mxCell>
                <mxCell id="NuhRCnbj-rR4ml6HiLZx-9" value="`e`" style="text;html=1;align=center;verticalAlign=middle;resizable=0;points=[];autosize=1;strokeColor=none;fillColor=none;container=0;" parent="1" vertex="1">
                    <mxGeometry x="350" y="185" width="40" height="30" as="geometry"/>
                </mxCell>
                <mxCell id="NuhRCnbj-rR4ml6HiLZx-11" value="" style="endArrow=classic;html=1;rounded=0;fontFamily=Comic Sans MS;fontSize=18;fontColor=default;autosize=1;resizable=0;strokeWidth=1;" parent="1" edge="1">
                    <mxGeometry width="50" height="50" relative="1" as="geometry">
                        <mxPoint x="500" y="230" as="sourcePoint"/>
                        <mxPoint x="500" y="200" as="targetPoint"/>
                    </mxGeometry>
                </mxCell>
                <mxCell id="NuhRCnbj-rR4ml6HiLZx-12" value="" style="endArrow=classic;html=1;rounded=0;fontFamily=Comic Sans MS;fontSize=18;fontColor=default;autosize=1;resizable=0;strokeWidth=1;" parent="1" source="NuhRCnbj-rR4ml6HiLZx-16" edge="1">
                    <mxGeometry width="50" height="50" relative="1" as="geometry">
                        <mxPoint x="500" y="230" as="sourcePoint"/>
                        <mxPoint x="500" y="260" as="targetPoint"/>
                    </mxGeometry>
                </mxCell>
                <mxCell id="NuhRCnbj-rR4ml6HiLZx-13" value="`F_y = eE_y`" style="text;html=1;align=center;verticalAlign=middle;resizable=0;points=[];autosize=1;strokeColor=none;fillColor=none;container=0;" parent="1" vertex="1">
                    <mxGeometry x="490" y="180" width="90" height="30" as="geometry"/>
                </mxCell>
                <mxCell id="NuhRCnbj-rR4ml6HiLZx-14" value="`E_y`" style="text;html=1;align=center;verticalAlign=middle;resizable=0;points=[];autosize=1;strokeColor=none;fillColor=none;container=0;" parent="1" vertex="1">
                    <mxGeometry x="490" y="240" width="50" height="30" as="geometry"/>
                </mxCell>
                <mxCell id="NuhRCnbj-rR4ml6HiLZx-15" value="" style="endArrow=classic;html=1;rounded=0;fontFamily=Comic Sans MS;fontSize=18;fontColor=default;autosize=1;resizable=0;strokeWidth=1;" parent="1" target="NuhRCnbj-rR4ml6HiLZx-16" edge="1">
                    <mxGeometry width="50" height="50" relative="1" as="geometry">
                        <mxPoint x="500" y="230" as="sourcePoint"/>
                        <mxPoint x="500" y="260" as="targetPoint"/>
                    </mxGeometry>
                </mxCell>
                <mxCell id="NuhRCnbj-rR4ml6HiLZx-16" value="" style="shape=waypoint;sketch=0;fillStyle=solid;size=6;pointerEvents=1;points=[];fillColor=none;resizable=0;rotatable=0;perimeter=centerPerimeter;snapToPoint=1;container=0;" parent="1" vertex="1">
                    <mxGeometry x="490" y="220" width="20" height="20" as="geometry"/>
                </mxCell>
                <mxCell id="NuhRCnbj-rR4ml6HiLZx-17" value="`z``" style="text;html=1;align=center;verticalAlign=middle;resizable=0;points=[];autosize=1;strokeColor=none;fillColor=none;container=0;" parent="1" vertex="1">
                    <mxGeometry x="270" y="270" width="40" height="30" as="geometry"/>
                </mxCell>
                <mxCell id="NuhRCnbj-rR4ml6HiLZx-10" value="`y``" style="text;html=1;align=center;verticalAlign=middle;resizable=0;points=[];autosize=1;strokeColor=none;fillColor=none;container=0;" parent="1" vertex="1">
                    <mxGeometry x="320" y="120" width="40" height="30" as="geometry"/>
                </mxCell>
                <mxCell id="1cbVZLrpeC4I2aAIL1vO-1" value="" style="group;rotation=-45;" vertex="1" connectable="0" parent="1">
                    <mxGeometry x="290" y="230" width="40" height="10" as="geometry"/>
                </mxCell>
                <mxCell id="1cbVZLrpeC4I2aAIL1vO-2" value="" style="rounded=0;whiteSpace=wrap;html=1;rotation=-45;" vertex="1" parent="1cbVZLrpeC4I2aAIL1vO-1">
                    <mxGeometry width="40" height="10" as="geometry"/>
                </mxCell>
                <mxCell id="1cbVZLrpeC4I2aAIL1vO-3" value="&lt;div style=&quot;line-height: 60%;&quot;&gt;&lt;span style=&quot;font-size: 6px; background-color: initial;&quot;&gt;N&lt;/span&gt;&lt;/div&gt;" style="rounded=0;whiteSpace=wrap;html=1;rotation=-45;fillColor=#f8cecc;strokeColor=#b85450;align=center;" vertex="1" parent="1cbVZLrpeC4I2aAIL1vO-1">
                    <mxGeometry x="4" y="11" width="10" height="10" as="geometry"/>
                </mxCell>
                <mxCell id="LDwkRbOc_9nFIZK31GX--1" value="`v`" style="text;html=1;align=center;verticalAlign=middle;resizable=0;points=[];autosize=1;strokeColor=none;fillColor=none;container=0;" vertex="1" parent="1">
                    <mxGeometry x="274" y="206" width="40" height="30" as="geometry"/>
                </mxCell>
                <mxCell id="0WbcqZNlKmsOw2tWX00V-1" value="" style="endArrow=classic;html=1;rounded=0;strokeWidth=1;" edge="1" parent="1">
                    <mxGeometry width="50" height="50" relative="1" as="geometry">
                        <mxPoint x="302.5" y="234.89" as="sourcePoint"/>
                        <mxPoint x="277.5" y="234.89" as="targetPoint"/>
                    </mxGeometry>
                </mxCell>
            </root>
        </mxGraphModel>
    </diagram>
    <diagram id="XZfLOBcV1UCKSRtw0u-M" name="Moving Charge Viewpoint">
        <mxGraphModel dx="662" dy="427" grid="1" gridSize="10" guides="1" tooltips="1" connect="1" arrows="1" fold="1" page="1" pageScale="1" pageWidth="850" pageHeight="1100" math="1" shadow="0">
            <root>
                <mxCell id="0"/>
                <mxCell id="1" parent="0"/>
                <mxCell id="YIoTQbfE1xKEqL4B6jO3-21" value="" style="rounded=0;whiteSpace=wrap;html=1;fontSize=6;" vertex="1" parent="1">
                    <mxGeometry x="245" y="85" width="320" height="180" as="geometry"/>
                </mxCell>
                <mxCell id="3" value="" style="endArrow=classic;html=1;rounded=0;strokeWidth=2;" parent="1" edge="1">
                    <mxGeometry width="50" height="50" relative="1" as="geometry">
                        <mxPoint x="305" y="190" as="sourcePoint"/>
                        <mxPoint x="265" y="230" as="targetPoint"/>
                    </mxGeometry>
                </mxCell>
                <mxCell id="4" value="" style="endArrow=classic;html=1;rounded=0;strokeWidth=2;" parent="1" edge="1">
                    <mxGeometry width="50" height="50" relative="1" as="geometry">
                        <mxPoint x="305" y="190" as="sourcePoint"/>
                        <mxPoint x="385" y="190" as="targetPoint"/>
                    </mxGeometry>
                </mxCell>
                <mxCell id="5" value="" style="endArrow=classic;html=1;rounded=0;strokeWidth=2;" parent="1" edge="1">
                    <mxGeometry width="50" height="50" relative="1" as="geometry">
                        <mxPoint x="305" y="190" as="sourcePoint"/>
                        <mxPoint x="305" y="110" as="targetPoint"/>
                    </mxGeometry>
                </mxCell>
                <mxCell id="6" value="`z`" style="text;html=1;align=center;verticalAlign=middle;resizable=0;points=[];autosize=1;strokeColor=none;fillColor=none;container=0;" parent="1" vertex="1">
                    <mxGeometry x="235" y="230" width="40" height="30" as="geometry"/>
                </mxCell>
                <mxCell id="7" value="`x`" style="text;html=1;align=center;verticalAlign=middle;resizable=0;points=[];autosize=1;strokeColor=none;fillColor=none;container=0;" parent="1" vertex="1">
                    <mxGeometry x="385" y="170" width="40" height="30" as="geometry"/>
                </mxCell>
                <mxCell id="8" value="" style="endArrow=none;html=1;rounded=0;strokeWidth=2;" parent="1" source="12" edge="1">
                    <mxGeometry width="50" height="50" relative="1" as="geometry">
                        <mxPoint x="345" y="210" as="sourcePoint"/>
                        <mxPoint x="345" y="140" as="targetPoint"/>
                    </mxGeometry>
                </mxCell>
                <mxCell id="9" value="" style="endArrow=classic;html=1;rounded=0;strokeWidth=1;" parent="1" edge="1">
                    <mxGeometry width="50" height="50" relative="1" as="geometry">
                        <mxPoint x="345" y="160" as="sourcePoint"/>
                        <mxPoint x="375" y="160" as="targetPoint"/>
                    </mxGeometry>
                </mxCell>
                <mxCell id="10" value="`v`" style="text;html=1;align=center;verticalAlign=middle;resizable=0;points=[];autosize=1;strokeColor=none;fillColor=none;container=0;" parent="1" vertex="1">
                    <mxGeometry x="345" y="130" width="40" height="30" as="geometry"/>
                </mxCell>
                <mxCell id="11" value="" style="endArrow=none;html=1;rounded=0;strokeWidth=2;" parent="1" target="12" edge="1">
                    <mxGeometry width="50" height="50" relative="1" as="geometry">
                        <mxPoint x="345" y="210" as="sourcePoint"/>
                        <mxPoint x="345" y="140" as="targetPoint"/>
                    </mxGeometry>
                </mxCell>
                <mxCell id="12" value="" style="shape=waypoint;sketch=0;fillStyle=solid;size=6;pointerEvents=1;points=[];fillColor=none;resizable=0;rotatable=0;perimeter=centerPerimeter;snapToPoint=1;container=0;" parent="1" vertex="1">
                    <mxGeometry x="335" y="150" width="20" height="20" as="geometry"/>
                </mxCell>
                <mxCell id="13" value="`e`" style="text;html=1;align=center;verticalAlign=middle;resizable=0;points=[];autosize=1;strokeColor=none;fillColor=none;container=0;" parent="1" vertex="1">
                    <mxGeometry x="315" y="145" width="40" height="30" as="geometry"/>
                </mxCell>
                <mxCell id="15" value="" style="endArrow=classic;html=1;rounded=0;fontFamily=Comic Sans MS;fontSize=18;fontColor=default;autosize=1;resizable=0;strokeWidth=1;" parent="1" edge="1">
                    <mxGeometry width="50" height="50" relative="1" as="geometry">
                        <mxPoint x="465" y="190" as="sourcePoint"/>
                        <mxPoint x="465" y="160" as="targetPoint"/>
                    </mxGeometry>
                </mxCell>
                <mxCell id="16" value="" style="endArrow=classic;html=1;rounded=0;fontFamily=Comic Sans MS;fontSize=18;fontColor=default;autosize=1;resizable=0;strokeWidth=1;" parent="1" edge="1">
                    <mxGeometry width="50" height="50" relative="1" as="geometry">
                        <mxPoint x="465" y="190" as="sourcePoint"/>
                        <mxPoint x="445" y="210" as="targetPoint"/>
                    </mxGeometry>
                </mxCell>
                <mxCell id="17" value="" style="endArrow=classic;html=1;rounded=0;fontFamily=Comic Sans MS;fontSize=18;fontColor=default;autosize=1;resizable=0;strokeWidth=1;" parent="1" edge="1">
                    <mxGeometry width="50" height="50" relative="1" as="geometry">
                        <mxPoint x="465" y="190" as="sourcePoint"/>
                        <mxPoint x="495" y="190" as="targetPoint"/>
                    </mxGeometry>
                </mxCell>
                <mxCell id="18" value="`v`" style="text;html=1;align=center;verticalAlign=middle;resizable=0;points=[];autosize=1;strokeColor=none;fillColor=none;container=0;" parent="1" vertex="1">
                    <mxGeometry x="465" y="160" width="40" height="30" as="geometry"/>
                </mxCell>
                <mxCell id="19" value="`B_z`" style="text;html=1;align=center;verticalAlign=middle;resizable=0;points=[];autosize=1;strokeColor=none;fillColor=none;container=0;" parent="1" vertex="1">
                    <mxGeometry x="415" y="200" width="50" height="30" as="geometry"/>
                </mxCell>
                <mxCell id="20" value="`\vec F = e(\vec v \times \vec B)`" style="text;html=1;align=center;verticalAlign=middle;resizable=0;points=[];autosize=1;strokeColor=none;fillColor=none;container=0;" parent="1" vertex="1">
                    <mxGeometry x="415" y="140" width="200" height="30" as="geometry"/>
                </mxCell>
                <mxCell id="21" value="" style="shape=waypoint;sketch=0;fillStyle=solid;size=6;pointerEvents=1;points=[];fillColor=none;resizable=0;rotatable=0;perimeter=centerPerimeter;snapToPoint=1;container=0;" parent="1" vertex="1">
                    <mxGeometry x="455" y="180" width="20" height="20" as="geometry"/>
                </mxCell>
                <mxCell id="14" value="`y`" style="text;html=1;align=center;verticalAlign=middle;resizable=0;points=[];autosize=1;strokeColor=none;fillColor=none;container=0;" parent="1" vertex="1">
                    <mxGeometry x="285" y="80" width="40" height="30" as="geometry"/>
                </mxCell>
                <mxCell id="RQh-O1ugYUXuVarbIOHG-23" value="" style="group;rotation=-45;" vertex="1" connectable="0" parent="1">
                    <mxGeometry x="260" y="190" width="40" height="10" as="geometry"/>
                </mxCell>
                <mxCell id="RQh-O1ugYUXuVarbIOHG-21" value="" style="rounded=0;whiteSpace=wrap;html=1;rotation=-45;" vertex="1" parent="RQh-O1ugYUXuVarbIOHG-23">
                    <mxGeometry width="40" height="10" as="geometry"/>
                </mxCell>
                <mxCell id="RQh-O1ugYUXuVarbIOHG-22" value="&lt;div style=&quot;line-height: 60%;&quot;&gt;&lt;span style=&quot;font-size: 6px; background-color: initial;&quot;&gt;N&lt;/span&gt;&lt;/div&gt;" style="rounded=0;whiteSpace=wrap;html=1;rotation=-45;fillColor=#f8cecc;strokeColor=#b85450;align=center;" vertex="1" parent="RQh-O1ugYUXuVarbIOHG-23">
                    <mxGeometry x="4" y="11" width="10" height="10" as="geometry"/>
                </mxCell>
            </root>
        </mxGraphModel>
    </diagram>
</mxfile>